<svg xmlns="http://www.w3.org/2000/svg" viewBox="0 0 512 512">
  <rect width="512" height="512" rx="96" fill="#0a0b10"/>
  <path d="M256 80c0 0-40 60-40 120 0 22 18 40 40 40s40-18 40-40c0-20-8-38-20-52 0 0 10 30-10 50-5-10-5-25 0-40-15 20-25 45-25 70 0 55 45 100 100 100-10-25-8-52 5-75-5 20 0 42 12 58 8-15 12-32 12-50 0-30-10-58-28-80 5 15 5 32-2 46-10-25-14-52-8-80-15 25-22 55-22 85 0 66 54 120 120 120 66 0 120-54 120-120 0-50-30-93-72-113 5 20 5 42-5 60-5-40-25-76-53-100 5 25 2 52-10 74-15-45-48-82-90-102z" fill="none"/>
  <text x="256" y="340" font-family="Arial,sans-serif" font-size="280" text-anchor="middle" fill="#f97316">🔥</text>
</svg>
